<?xml version="1.0" standalone="no"?><!DOCTYPE svg PUBLIC "-//W3C//DTD SVG 1.1//EN" "http://www.w3.org/Graphics/SVG/1.1/DTD/svg11.dtd"><svg t="1571651950264" class="icon" viewBox="0 0 1024 1024" version="1.1" xmlns="http://www.w3.org/2000/svg" p-id="7409" xmlns:xlink="http://www.w3.org/1999/xlink" width="32" height="32"><defs><style type="text/css"></style></defs><path d="M887.466667 554.666667h-87.552a341.333333 341.333333 0 1 0-239.658667 243.754666c4.949333 13.013333 13.013333 24.533333 23.296 33.578667a85.162667 85.162667 0 0 0-28.458667 55.381333c-27.733333 5.632-56.405333 8.618667-85.76 8.618667-235.648 0-426.666667-191.018667-426.666666-426.666667S233.685333 42.666667 469.333333 42.666667s426.666667 191.018667 426.666667 426.666666c0 29.226667-2.944 57.770667-8.533333 85.333334z m-396.8-85.333334h128a42.666667 42.666667 0 0 1 0 85.333334h-170.666667a42.666667 42.666667 0 0 1-42.666667-42.666667V256a42.666667 42.666667 0 1 1 85.333334 0v213.333333z m192 128h256a42.666667 42.666667 0 0 1 0 85.333334h-256a42.666667 42.666667 0 0 1 0-85.333334z m0 128h256a42.666667 42.666667 0 0 1 0 85.333334h-256a42.666667 42.666667 0 0 1 0-85.333334z m0 128h256a42.666667 42.666667 0 0 1 0 85.333334h-256a42.666667 42.666667 0 0 1 0-85.333334z" fill="#42b983" p-id="7410"></path></svg>