<?xml version="1.0" standalone="no"?><!DOCTYPE svg PUBLIC "-//W3C//DTD SVG 1.1//EN" "http://www.w3.org/Graphics/SVG/1.1/DTD/svg11.dtd"><svg t="1571217339104" class="icon" viewBox="0 0 1024 1024" version="1.1" xmlns="http://www.w3.org/2000/svg" p-id="8641" xmlns:xlink="http://www.w3.org/1999/xlink" width="32" height="32"><defs><style type="text/css"></style></defs><path d="M939.52 192h-204.8l48.64-84.48c12.8-20.48 5.12-46.08-15.36-58.88-20.48-12.8-46.08-5.12-58.88 15.36l-74.24 128h-243.2l-74.24-128c-10.24-20.48-35.84-28.16-56.32-15.36-20.48 10.24-28.16 38.4-15.36 58.88l48.64 84.48H84.48c-23.04 0-43.52 17.92-43.52 43.52v640c0 23.04 17.92 43.52 43.52 43.52h852.48c23.04 0 43.52-17.92 43.52-43.52v-640c0-25.6-17.92-43.52-40.96-43.52z m-43.52 640H128V276.48h768v555.52z" fill="#42b983" p-id="8642"></path><path d="M614.4 519.68l-161.28-92.16c-20.48-12.8-48.64 2.56-48.64 28.16V640c0 25.6 25.6 40.96 48.64 28.16l161.28-92.16c23.04-15.36 23.04-46.08 0-56.32z" fill="#42b983" p-id="8643"></path></svg>